# Blender 4.0.2
# www.blender.org
mtllib escritorio.mtl
o Object_4
v 1.007205 0.192471 0.701186
v 1.007205 0.192471 0.701186
v 1.007205 0.000000 0.701186
v 1.007205 0.000000 0.701186
v 1.007205 0.000000 0.701186
v 1.007205 0.192471 2.701187
v 1.007205 0.192471 2.701187
v 1.007205 0.000000 2.701187
v 1.007205 0.000000 2.701187
v 1.007205 0.000000 2.701187
v -1.007205 0.192471 0.701186
v -1.007205 0.192471 0.701186
v -1.007205 0.000000 0.701186
v -1.007205 0.000000 0.701186
v -1.007205 0.000000 0.701186
v -1.007205 0.192471 2.701187
v -1.007205 0.192471 2.701187
v -1.007205 0.000000 2.701187
v -1.007205 0.000000 2.701187
v -1.007205 0.000000 2.701187
v 1.007205 0.192471 -2.701187
v 1.007205 0.192471 -2.701187
v 1.007205 0.000000 -2.701187
v 1.007205 0.000000 -2.701187
v 1.007205 0.000000 -2.701187
v 1.007205 0.192471 -0.701186
v 1.007205 0.192471 -0.701186
v 1.007205 0.000000 -0.701186
v 1.007205 0.000000 -0.701186
v 1.007205 0.000000 -0.701186
v -1.007205 0.192471 -2.701187
v -1.007205 0.192471 -2.701187
v -1.007205 0.000000 -2.701187
v -1.007205 0.000000 -2.701187
v -1.007205 0.000000 -2.701187
v -1.007205 0.192471 -0.701186
v -1.007205 0.192471 -0.701186
v -1.007205 0.000000 -0.701186
v -1.007205 0.000000 -0.701186
v -1.007205 0.000000 -0.701186
v -1.091428 0.289519 2.845092
v -1.091428 0.289519 2.845092
v -1.091428 0.289519 2.845092
v -1.091428 0.289519 2.845092
v -1.091428 2.002108 2.845092
v -1.091428 2.002108 2.845092
v -1.091428 2.002108 2.845092
v -1.091428 2.002108 2.845092
v -1.091428 0.289519 -0.517097
v -1.091428 0.289519 -0.517097
v -1.091428 0.289519 -0.517097
v -1.091428 2.002108 -0.517097
v -1.091428 2.002108 -0.517097
v -1.091428 2.002108 -0.517097
v 1.091428 0.145813 2.905879
v 1.091428 0.145813 2.905879
v 1.091428 0.145813 2.905879
v 1.091428 2.145814 2.905879
v 1.091428 2.145814 2.905879
v 1.091428 2.145814 2.905879
v 1.091428 2.145814 2.905879
v 1.091428 0.145813 -2.905879
v 1.091428 0.145813 -2.905879
v 1.091428 0.145813 -2.905879
v 1.091428 2.145814 -2.905879
v 1.091428 2.145814 -2.905879
v 1.091428 2.145814 -2.905879
v 1.091428 2.145814 -2.905879
v -1.134820 2.145814 2.986954
v -1.134820 2.145814 2.986954
v -1.134820 2.145814 2.986954
v -1.134820 2.145814 2.986954
v -1.134820 2.145814 -2.986954
v -1.134820 2.145814 -2.986954
v -1.134820 2.145814 -2.986954
v -1.134820 2.145814 -2.986954
v 1.134820 2.145814 -2.986954
v 1.134820 2.145814 -2.986954
v 1.134820 2.145814 -2.986954
v 1.134820 2.145814 -2.986954
v 1.134820 2.145814 2.986954
v 1.134820 2.145814 2.986954
v 1.134820 2.145814 2.986954
v 1.134820 2.145814 2.986954
v -1.134820 2.230529 2.986954
v -1.134820 2.230529 2.986954
v -1.134820 2.230529 2.986954
v -1.134820 2.230529 -2.986954
v -1.134820 2.230529 -2.986954
v -1.134820 2.230529 -2.986954
v 1.134820 2.230529 -2.986954
v 1.134820 2.230529 -2.986954
v 1.134820 2.230529 -2.986954
v 1.134820 2.230529 2.986954
v 1.134820 2.230529 2.986954
v 1.134820 2.230529 2.986954
v -1.091428 0.145813 -2.905879
v -1.091428 0.145813 -2.905879
v -1.091428 0.145813 -2.905879
v -1.091428 0.145813 2.905879
v -1.091428 0.145813 2.905879
v -1.091428 0.145813 2.905879
v -1.091428 0.145813 2.905879
v -1.091428 2.145814 2.905879
v -1.091428 2.145814 2.905879
v -1.091428 2.145814 2.905879
v -1.091428 2.145814 2.905879
v -1.091428 2.145814 2.905879
v -1.091428 2.145814 -2.905879
v -1.091428 2.145814 -2.905879
v -1.091428 2.145814 -2.905879
v -1.091428 2.145814 -2.905879
v 0.746207 0.289519 -0.517097
v 0.746207 0.289519 -0.517097
v 0.746207 0.289519 -0.517097
v 0.746207 0.289519 2.845092
v 0.746207 0.289519 2.845092
v 0.746207 0.289519 2.845092
v 0.746207 2.002108 2.845092
v 0.746207 2.002108 2.845092
v 0.746207 2.002108 2.845092
v 0.746207 2.002108 -0.517097
v 0.746207 2.002108 -0.517097
v 0.746207 2.002108 -0.517097
v -1.048779 1.109300 2.841589
v -1.048779 1.109300 2.841589
v -1.048779 1.109300 -0.661950
v -1.048779 1.109300 -0.661950
v 0.788856 1.109300 -0.661950
v 0.788856 1.109300 2.841589
v -1.048779 1.164967 -0.661950
v -1.048779 1.164967 -0.661950
v -1.048779 1.164967 2.841589
v -1.048779 1.164967 2.841589
v 0.788856 1.164967 -0.661950
v 0.788856 1.164967 2.841589
v -1.000787 0.294857 -2.769327
v -1.000787 0.294857 -2.769327
v -1.109071 0.294857 -2.769327
v -1.109071 0.294857 -2.769327
v -1.109071 0.294857 -2.769327
v -1.000788 2.002108 -2.769327
v -1.000788 2.002108 -2.769327
v -1.109071 2.002108 -2.769327
v -1.109071 2.002108 -2.769327
v -1.109071 2.002108 -2.769327
v -1.000787 0.294857 -0.668226
v -1.000787 0.294857 -0.668226
v -1.109071 0.294857 -0.668226
v -1.109071 0.294857 -0.668226
v -1.109071 0.294857 -0.668226
v -1.000788 2.002108 -0.668226
v -1.000788 2.002108 -0.668226
v -1.109071 2.002108 -0.668226
v -1.109071 2.002108 -0.668226
v -1.109071 2.002108 -0.668226
v -1.109071 2.002108 -1.725505
v -1.109071 2.002108 -1.725505
v -1.109071 2.002108 -1.725505
v -1.079042 2.002108 -1.718776
v -1.079042 2.002108 -1.718776
v -1.079042 2.002108 -1.718776
v -1.109071 2.002108 -1.712047
v -1.109071 2.002108 -1.712047
v -1.109071 2.002108 -1.712047
v -1.109071 0.294857 -1.712047
v -1.109071 0.294857 -1.712047
v -1.109071 0.294857 -1.712047
v -1.079041 0.294857 -1.718776
v -1.079041 0.294857 -1.718776
v -1.079041 0.294857 -1.718776
v -1.109071 0.294857 -1.725505
v -1.109071 0.294857 -1.725505
v -1.109071 0.294857 -1.725505
v -1.082128 1.782538 -2.843713
v -1.082128 1.782538 -2.843713
v -1.113410 1.782538 -2.799765
v -1.113410 1.782538 -2.799765
v -1.113410 1.782538 -2.799765
v -1.082128 1.847933 -2.843713
v -1.082128 1.847933 -2.843713
v -1.113410 1.847933 -2.799765
v -1.113410 1.847933 -2.799765
v -1.113410 1.847933 -2.799765
v -1.082128 1.782538 -2.680249
v -1.082128 1.782538 -2.680249
v -1.113410 1.782538 -2.680249
v -1.113410 1.782538 -2.680249
v -1.113410 1.782538 -2.680249
v -1.082128 1.847933 -2.680249
v -1.082128 1.847933 -2.680249
v -1.113410 1.847933 -2.680249
v -1.113410 1.847933 -2.680249
v -1.113410 1.847933 -2.680249
v -1.082128 0.450700 -2.843713
v -1.082128 0.450700 -2.843713
v -1.113410 0.450700 -2.799765
v -1.113410 0.450700 -2.799765
v -1.113410 0.450700 -2.799765
v -1.082128 0.516094 -2.843713
v -1.082128 0.516094 -2.843713
v -1.113410 0.516094 -2.799765
v -1.113410 0.516094 -2.799765
v -1.113410 0.516094 -2.799765
v -1.082128 0.450700 -2.680249
v -1.082128 0.450700 -2.680249
v -1.113410 0.450700 -2.680249
v -1.113410 0.450700 -2.680249
v -1.113410 0.450700 -2.680249
v -1.082128 0.516094 -2.680249
v -1.082128 0.516094 -2.680249
v -1.113410 0.516094 -2.680249
v -1.113410 0.516094 -2.680249
v -1.113410 0.516094 -2.680249
v -1.082128 1.782538 -0.592231
v -1.082128 1.782538 -0.592231
v -1.113410 1.782538 -0.636179
v -1.113410 1.782538 -0.636179
v -1.113410 1.782538 -0.636179
v -1.082128 1.847933 -0.592231
v -1.082128 1.847933 -0.592231
v -1.113410 1.847933 -0.636179
v -1.113410 1.847933 -0.636179
v -1.113410 1.847933 -0.636179
v -1.082128 1.782538 -0.755694
v -1.082128 1.782538 -0.755694
v -1.113410 1.782538 -0.755694
v -1.113410 1.782538 -0.755694
v -1.113410 1.782538 -0.755694
v -1.082128 1.847933 -0.755694
v -1.082128 1.847933 -0.755694
v -1.113410 1.847933 -0.755694
v -1.113410 1.847933 -0.755694
v -1.113410 1.847933 -0.755694
v -1.082128 0.450700 -0.592231
v -1.082128 0.450700 -0.592231
v -1.113410 0.450700 -0.636179
v -1.113410 0.450700 -0.636179
v -1.113410 0.450700 -0.636179
v -1.082128 0.516094 -0.592231
v -1.082128 0.516094 -0.592231
v -1.113410 0.516094 -0.636179
v -1.113410 0.516094 -0.636179
v -1.113410 0.516094 -0.636179
v -1.082128 0.450700 -0.755694
v -1.082128 0.450700 -0.755694
v -1.113410 0.450700 -0.755694
v -1.113410 0.450700 -0.755694
v -1.113410 0.450700 -0.755694
v -1.082128 0.516094 -0.755694
v -1.082128 0.516094 -0.755694
v -1.113410 0.516094 -0.755694
v -1.113410 0.516094 -0.755694
v -1.113410 0.516094 -0.755694
vn -0.0000 -0.0000 1.0000
vn -1.0000 -0.0000 -0.0000
vn -0.0000 -1.0000 -0.0000
vn 1.0000 -0.0000 -0.0000
vn -0.0000 -0.0000 -1.0000
vn -0.0000 1.0000 -0.0000
vn -0.2187 -0.0000 -0.9758
vn -0.2187 -0.0000 0.9758
vn -0.8147 -0.0000 -0.5799
vn -0.8147 -0.0000 0.5799
vt 0.340418 0.330290
vt 0.324281 0.330290
vt 0.324281 0.499133
vt 0.340418 0.499133
vt 0.915107 0.689175
vt 0.898970 0.689175
vt 0.898970 0.856860
vt 0.915107 0.856860
vt 0.335370 0.217239
vt 0.335370 0.048346
vt 0.167685 0.048346
vt 0.167685 0.217239
vt 0.915107 0.521491
vt 0.898970 0.521491
vt 0.898970 0.689175
vt 0.915107 0.689175
vt 0.324281 0.330290
vt 0.308143 0.330290
vt 0.308143 0.499133
vt 0.324281 0.499133
vt 0.356555 0.330290
vt 0.340418 0.330290
vt 0.340418 0.499133
vt 0.356555 0.499133
vt 0.356555 0.162606
vt 0.340418 0.162606
vt 0.340418 0.330291
vt 0.356555 0.330291
vt 0.000000 0.048346
vt 0.000000 0.217239
vt 0.372693 0.162606
vt 0.356555 0.162606
vt 0.356555 0.330290
vt 0.372693 0.330290
vt 0.372693 0.330290
vt 0.356555 0.330290
vt 0.356555 0.499133
vt 0.372693 0.499133
vt 0.000000 0.217239
vt 0.000000 0.499133
vt 0.154072 0.499133
vt 0.154072 0.217239
vt 0.856412 0.047873
vt 0.688728 0.047873
vt 0.688728 0.230834
vt 0.856412 0.230834
vt 0.898970 0.512728
vt 0.731285 0.512728
vt 0.731285 1.000000
vt 0.898970 1.000000
vt 0.548269 0.036022
vt 0.380584 0.036022
vt 0.380584 0.218983
vt 0.548269 0.218983
vt 0.380584 1.000000
vt 0.563600 1.000000
vt 0.563600 0.512728
vt 0.380584 0.512728
vt 0.186654 0.505931
vt 0.186654 0.993202
vt 0.190292 1.000000
vt 0.190292 0.499133
vt 0.986486 0.856860
vt 0.986486 0.355993
vt 0.979383 0.355993
vt 0.979383 0.856860
vt 0.003638 0.993202
vt 0.003638 0.505931
vt 0.000000 0.499133
vt 0.000000 1.000000
vt 0.190292 1.000000
vt 0.380584 1.000000
vt 0.380584 0.499133
vt 0.940367 0.856860
vt 0.940367 0.666624
vt 0.933264 0.666624
vt 0.933264 0.856860
vt 0.947470 0.856860
vt 0.947470 0.666624
vt 0.993589 1.000000
vt 0.993589 0.499133
vt 0.986486 0.499133
vt 0.986486 1.000000
vt 0.575649 0.517825
vt 0.719236 0.517825
vt 0.832315 0.230834
vt 0.688728 0.512728
vt 0.832315 0.512728
vt 0.308143 0.499133
vt 0.308143 0.217239
vt 0.154072 0.499133
vt 1.000000 0.230834
vt 1.000000 0.076808
vt 0.856412 0.076808
vt 0.975903 0.358702
vt 0.832315 0.358702
vt 0.832315 0.512728
vt 0.975903 0.512728
vt 0.380584 0.512728
vt 0.534656 0.512728
vt 0.534656 0.218983
vt 0.380584 0.218983
vt 0.688728 0.512728
vt 0.688728 0.218983
vt 0.534656 0.218983
vt 0.534656 0.512728
vt 0.377360 0.499133
vt 0.377360 0.205388
vt 0.372693 0.205388
vt 0.372693 0.499133
vt 0.635785 0.218983
vt 0.644861 0.218983
vt 0.644861 0.075843
vt 0.635785 0.075843
vt 0.653938 0.075843
vt 0.653938 0.218983
vt 0.635786 0.075843
vt 0.548269 0.075843
vt 0.548269 0.218983
vt 0.635786 0.218983
vt 0.986486 0.856860
vt 0.898970 0.856860
vt 0.898970 1.000000
vt 0.379890 0.212853
vt 0.377360 0.212853
vt 0.377360 0.355993
vt 0.379891 0.355993
vt 0.379891 0.355993
vt 0.377360 0.355993
vt 0.379890 0.499133
vt 0.313626 0.330290
vt 0.313626 0.326606
vt 0.308143 0.326606
vt 0.308143 0.330290
vt 0.310766 0.316585
vt 0.313389 0.312901
vt 0.313389 0.302880
vt 0.310766 0.302880
vt 0.321970 0.311103
vt 0.319348 0.311103
vt 0.319348 0.316585
vt 0.321970 0.316585
vt 0.316249 0.302880
vt 0.313626 0.302880
vt 0.313626 0.312901
vt 0.316249 0.316585
vt 0.308143 0.316585
vt 0.313626 0.316585
vt 0.330075 0.330290
vt 0.330075 0.326606
vt 0.324592 0.326606
vt 0.324592 0.330290
vt 0.318872 0.312901
vt 0.318872 0.302880
vt 0.332458 0.311102
vt 0.329837 0.311102
vt 0.329837 0.316585
vt 0.332458 0.316585
vt 0.327215 0.302880
vt 0.324592 0.302880
vt 0.324592 0.312901
vt 0.327215 0.316585
vt 0.324592 0.316585
vt 0.330075 0.316585
vt 0.324592 0.316585
vt 0.319109 0.316585
vt 0.319109 0.320270
vt 0.324592 0.320270
vt 0.335320 0.330290
vt 0.335320 0.316585
vt 0.332698 0.316585
vt 0.332698 0.326606
vt 0.327215 0.311103
vt 0.329837 0.316585
vt 0.329837 0.311103
vt 0.332698 0.330290
vt 0.330075 0.320270
vt 0.330075 0.330290
vt 0.319109 0.330290
vt 0.324592 0.330290
vt 0.319109 0.316585
vt 0.313626 0.316585
vt 0.313626 0.320270
vt 0.319109 0.320270
vt 0.337943 0.330290
vt 0.337943 0.316585
vt 0.335320 0.326606
vt 0.321970 0.311102
vt 0.321970 0.316585
vt 0.324592 0.316585
vt 0.324592 0.311102
vt 0.310766 0.316585
vt 0.308143 0.306565
vt 0.308143 0.316585
vt 0.313626 0.330290
vt 0.319109 0.330290
vt 0.575649 0.799719
vt 0.719236 0.799719
vt 0.924186 0.769343
vt 0.915107 0.856860
vt 0.924186 0.856860
vt 0.921668 0.768779
vt 0.915107 0.680699
vt 0.924186 0.768215
vt 0.924186 0.680699
vt 0.933264 0.680699
vt 0.933264 0.856860
vt 0.926703 0.768779
s 0
usemtl Material.001
f 9/1/1 6/2/1 17/3/1
f 9/1/1 17/3/1 20/4/1
f 18/5/2 16/6/2 11/7/2
f 18/5/2 11/7/2 13/8/2
f 14/9/3 3/10/3 8/11/3
f 14/9/3 8/11/3 19/12/3
f 5/13/4 2/14/4 7/15/4
f 5/13/4 7/15/4 10/16/4
f 15/17/5 12/18/5 1/19/5
f 15/17/5 1/19/5 4/20/5
f 29/21/1 26/22/1 37/23/1
f 29/21/1 37/23/1 40/24/1
f 38/25/2 36/26/2 31/27/2
f 38/25/2 31/27/2 33/28/2
f 34/12/3 23/11/3 28/29/3
f 34/12/3 28/29/3 39/30/3
f 25/31/4 22/32/4 27/33/4
f 25/31/4 27/33/4 30/34/4
f 35/35/5 32/36/5 21/37/5
f 35/35/5 21/37/5 24/38/5
f 47/39/3 53/40/3 123/41/3
f 47/39/3 123/41/3 120/42/3
f 99/43/5 112/44/5 66/45/5
f 99/43/5 66/45/5 63/46/5
f 64/47/4 68/48/4 61/49/4
f 64/47/4 61/49/4 57/50/4
f 56/51/1 59/52/1 108/53/1
f 56/51/1 108/53/1 103/54/1
f 98/55/3 62/56/3 55/57/3
f 98/55/3 55/57/3 102/58/3
f 60/59/3 67/60/3 79/61/3
f 60/59/3 79/61/3 83/62/3
f 73/63/2 69/64/2 85/65/2
f 73/63/2 85/65/2 88/66/2
f 110/67/3 106/68/3 70/69/3
f 110/67/3 70/69/3 74/70/3
f 107/68/3 58/59/3 81/62/3
f 107/68/3 81/62/3 71/69/3
f 65/60/3 111/67/3 75/70/3
f 65/60/3 75/70/3 77/61/3
f 92/71/6 90/72/6 87/73/6
f 92/71/6 87/73/6 95/62/6
f 72/74/1 82/75/1 94/76/1
f 72/74/1 94/76/1 86/77/1
f 78/78/5 76/79/5 89/75/5
f 78/78/5 89/75/5 91/74/5
f 84/80/4 80/81/4 93/82/4
f 84/80/4 93/82/4 96/83/4
f 46/84/2 42/85/2 101/48/2
f 46/84/2 101/48/2 105/57/2
f 116/86/2 119/45/2 122/87/2
f 116/86/2 122/87/2 113/88/2
f 51/89/6 44/90/6 118/42/6
f 51/89/6 118/42/6 115/91/6
f 54/46/1 50/92/1 114/93/1
f 54/46/1 114/93/1 124/94/1
f 43/95/5 48/96/5 121/97/5
f 43/95/5 121/97/5 117/98/5
f 128/99/3 129/100/3 130/101/3
f 128/99/3 130/101/3 126/102/3
f 132/103/6 134/104/6 136/105/6
f 132/103/6 136/105/6 135/106/6
f 127/107/2 125/108/2 133/109/2
f 127/107/2 133/109/2 131/110/2
f 137/111/5 140/112/5 146/113/5
f 137/111/5 146/113/5 143/114/5
f 153/115/1 156/113/1 150/112/1
f 153/115/1 150/112/1 147/116/1
f 157/117/2 144/118/2 139/119/2
f 157/117/2 139/119/2 172/120/2
f 154/121/2 163/122/2 166/123/2
f 154/121/2 166/123/2 149/83/2
f 164/124/7 160/125/7 169/126/7
f 164/124/7 169/126/7 167/127/7
f 161/128/8 158/129/8 173/107/8
f 161/128/8 173/107/8 170/130/8
f 175/131/9 178/132/9 183/133/9
f 175/131/9 183/133/9 180/134/9
f 181/135/6 184/136/6 194/137/6
f 181/135/6 194/137/6 191/138/6
f 190/139/1 193/140/1 188/141/1
f 190/139/1 188/141/1 185/142/1
f 186/143/3 189/144/3 179/145/3
f 186/143/3 179/145/3 176/146/3
f 192/147/2 182/133/2 177/132/2
f 192/147/2 177/132/2 187/148/2
f 195/149/9 198/150/9 203/151/9
f 195/149/9 203/151/9 200/152/9
f 201/146/6 204/153/6 214/154/6
f 201/146/6 214/154/6 211/143/6
f 210/155/1 213/156/1 209/157/1
f 210/155/1 209/157/1 206/158/1
f 205/159/3 208/160/3 199/161/3
f 205/159/3 199/161/3 196/162/3
f 212/163/2 202/151/2 197/150/2
f 212/163/2 197/150/2 207/164/2
f 215/165/10 220/166/10 223/167/10
f 215/165/10 223/167/10 218/168/10
f 221/169/6 231/170/6 234/171/6
f 221/169/6 234/171/6 224/172/6
f 230/173/5 225/162/5 228/174/5
f 230/173/5 228/174/5 233/175/5
f 226/176/3 216/171/3 219/177/3
f 226/176/3 219/177/3 229/178/3
f 232/179/2 227/180/2 217/168/2
f 232/179/2 217/168/2 222/167/2
f 235/181/10 240/182/10 243/183/10
f 235/181/10 243/183/10 238/184/10
f 241/185/6 251/186/6 254/170/6
f 241/185/6 254/170/6 244/187/6
f 250/188/5 246/189/5 249/190/5
f 250/188/5 249/190/5 253/191/5
f 245/192/3 236/138/3 239/193/3
f 245/192/3 239/193/3 248/194/3
f 252/195/2 247/196/2 237/184/2
f 252/195/2 237/184/2 242/183/2
f 104/57/2 52/197/2 45/84/2
f 41/85/2 97/49/2 100/48/2
f 97/49/2 41/85/2 49/198/2
f 97/49/2 49/198/2 109/56/2
f 109/56/2 49/198/2 52/197/2
f 109/56/2 52/197/2 104/57/2
f 159/199/6 142/200/6 145/201/6
f 142/200/6 159/199/6 162/202/6
f 142/200/6 162/202/6 152/203/6
f 152/203/6 162/202/6 165/204/6
f 152/203/6 165/204/6 155/205/6
f 148/206/3 141/201/3 138/207/3
f 141/201/3 148/206/3 171/208/3
f 141/201/3 171/208/3 174/199/3
f 171/208/3 148/206/3 168/204/3
f 168/204/3 148/206/3 151/205/3
